<svg id="visual" viewBox="0 0 900 600" width="900" height="600" xmlns="http://www.w3.org/2000/svg" xmlns:xlink="http://www.w3.org/1999/xlink" version="1.1"><g stroke-width="1" stroke-linejoin="bevel"><path d="M489 299L526.5 277L462 231Z" fill="#efe2e2" stroke="#efe2e2"></path><path d="M526.5 277L561.5 160L462 231Z" fill="#faf5f5" stroke="#faf5f5"></path><path d="M487 87L371.5 202L462 231Z" fill="#eddddd" stroke="#eddddd"></path><path d="M462 231L339.5 324L489 299Z" fill="#e5cfcf" stroke="#e5cfcf"></path><path d="M561.5 160L532.5 126L462 231Z" fill="#f7f1f1" stroke="#f7f1f1"></path><path d="M673 323L637 215L526.5 277Z" fill="#faf5f5" stroke="#faf5f5"></path><path d="M526.5 277L637 215L561.5 160Z" fill="#f2e7e7" stroke="#f2e7e7"></path><path d="M561.5 160L679 129L532.5 126Z" fill="#e5cfcf" stroke="#e5cfcf"></path><path d="M371.5 202L339.5 324L462 231Z" fill="#f2e7e7" stroke="#f2e7e7"></path><path d="M355.5 397L480 430L489 299Z" fill="#f2e7e7" stroke="#f2e7e7"></path><path d="M489 299L588.5 400L526.5 277Z" fill="#f2e7e7" stroke="#f2e7e7"></path><path d="M480 430L588.5 400L489 299Z" fill="#e5cfcf" stroke="#e5cfcf"></path><path d="M600.5 0L487 87L532.5 126Z" fill="#fcfafa" stroke="#fcfafa"></path><path d="M532.5 126L487 87L462 231Z" fill="#efe2e2" stroke="#efe2e2"></path><path d="M588.5 400L673 323L526.5 277Z" fill="#fcfafa" stroke="#fcfafa"></path><path d="M339.5 324L355.5 397L489 299Z" fill="#e8d4d4" stroke="#e8d4d4"></path><path d="M487 87L344.5 132L371.5 202Z" fill="#efe2e2" stroke="#efe2e2"></path><path d="M371.5 202L219 204L339.5 324Z" fill="#eddddd" stroke="#eddddd"></path><path d="M355.5 397L456 469L480 430Z" fill="#ffffff" stroke="#ffffff"></path><path d="M480 430L543.5 534L588.5 400Z" fill="#fcfafa" stroke="#fcfafa"></path><path d="M793.5 205L679 129L637 215Z" fill="#faf5f5" stroke="#faf5f5"></path><path d="M637 215L679 129L561.5 160Z" fill="#fcfafa" stroke="#fcfafa"></path><path d="M588.5 400L680 410L673 323Z" fill="#f2e7e7" stroke="#f2e7e7"></path><path d="M673 323L793.5 205L637 215Z" fill="#f2e7e7" stroke="#f2e7e7"></path><path d="M687 522L680 410L588.5 400Z" fill="#e8d4d4" stroke="#e8d4d4"></path><path d="M600.5 0L433 0L487 87Z" fill="#ffffff" stroke="#ffffff"></path><path d="M487 87L433 0L344.5 132Z" fill="#f2e7e7" stroke="#f2e7e7"></path><path d="M219 96L219 204L344.5 132Z" fill="#e5cfcf" stroke="#e5cfcf"></path><path d="M344.5 132L219 204L371.5 202Z" fill="#eddddd" stroke="#eddddd"></path><path d="M218 379L305.5 484L355.5 397Z" fill="#f7f1f1" stroke="#f7f1f1"></path><path d="M456 600L543.5 534L456 469Z" fill="#eddddd" stroke="#eddddd"></path><path d="M456 469L543.5 534L480 430Z" fill="#ffffff" stroke="#ffffff"></path><path d="M679 129L600.5 0L532.5 126Z" fill="#f2e7e7" stroke="#f2e7e7"></path><path d="M218 379L355.5 397L339.5 324Z" fill="#e8d4d4" stroke="#e8d4d4"></path><path d="M355.5 397L305.5 484L456 469Z" fill="#e8d4d4" stroke="#e8d4d4"></path><path d="M774.5 405L773.5 332L680 410Z" fill="#ead9d9" stroke="#ead9d9"></path><path d="M680 410L773.5 332L673 323Z" fill="#efe2e2" stroke="#efe2e2"></path><path d="M219 204L200 289L339.5 324Z" fill="#f7f1f1" stroke="#f7f1f1"></path><path d="M200 289L218 379L339.5 324Z" fill="#eddddd" stroke="#eddddd"></path><path d="M773.5 332L793.5 205L673 323Z" fill="#faf5f5" stroke="#faf5f5"></path><path d="M679 129L662 0L600.5 0Z" fill="#fcfafa" stroke="#fcfafa"></path><path d="M784.5 0L662 0L679 129Z" fill="#e8d4d4" stroke="#e8d4d4"></path><path d="M433 0L318.5 0L344.5 132Z" fill="#f5ecec" stroke="#f5ecec"></path><path d="M318.5 0L219 96L344.5 132Z" fill="#efe2e2" stroke="#efe2e2"></path><path d="M219 204L140.5 224L200 289Z" fill="#efe2e2" stroke="#efe2e2"></path><path d="M757.5 501L774.5 405L680 410Z" fill="#ffffff" stroke="#ffffff"></path><path d="M773.5 332L900 278L793.5 205Z" fill="#fcfafa" stroke="#fcfafa"></path><path d="M543.5 534L687 522L588.5 400Z" fill="#f5ecec" stroke="#f5ecec"></path><path d="M900 198L807.5 135L793.5 205Z" fill="#faf5f5" stroke="#faf5f5"></path><path d="M793.5 205L807.5 135L679 129Z" fill="#f5ecec" stroke="#f5ecec"></path><path d="M329.5 600L456 600L456 469Z" fill="#fcfafa" stroke="#fcfafa"></path><path d="M543.5 534L657 600L687 522Z" fill="#f5ecec" stroke="#f5ecec"></path><path d="M456 600L559.5 600L543.5 534Z" fill="#f2e7e7" stroke="#f2e7e7"></path><path d="M219 96L140.5 224L219 204Z" fill="#f5ecec" stroke="#f5ecec"></path><path d="M85.5 316L142.5 436L218 379Z" fill="#eddddd" stroke="#eddddd"></path><path d="M142.5 436L217 488L218 379Z" fill="#efe2e2" stroke="#efe2e2"></path><path d="M218 379L217 488L305.5 484Z" fill="#ffffff" stroke="#ffffff"></path><path d="M305.5 484L329.5 600L456 469Z" fill="#f2e7e7" stroke="#f2e7e7"></path><path d="M687 522L757.5 501L680 410Z" fill="#faf5f5" stroke="#faf5f5"></path><path d="M805.5 600L757.5 501L687 522Z" fill="#ead9d9" stroke="#ead9d9"></path><path d="M219 96L107.5 71L140.5 224Z" fill="#efe2e2" stroke="#efe2e2"></path><path d="M318.5 0L231 0L219 96Z" fill="#eddddd" stroke="#eddddd"></path><path d="M240 600L329.5 600L305.5 484Z" fill="#f2e7e7" stroke="#f2e7e7"></path><path d="M559.5 600L657 600L543.5 534Z" fill="#f5ecec" stroke="#f5ecec"></path><path d="M85.5 316L218 379L200 289Z" fill="#faf5f5" stroke="#faf5f5"></path><path d="M217 488L240 600L305.5 484Z" fill="#ffffff" stroke="#ffffff"></path><path d="M807.5 135L784.5 0L679 129Z" fill="#e5cfcf" stroke="#e5cfcf"></path><path d="M140.5 224L85.5 316L200 289Z" fill="#efe2e2" stroke="#efe2e2"></path><path d="M0 296L85.5 316L0 205Z" fill="#efe2e2" stroke="#efe2e2"></path><path d="M900 383L773.5 332L774.5 405Z" fill="#faf5f5" stroke="#faf5f5"></path><path d="M900 383L900 278L773.5 332Z" fill="#faf5f5" stroke="#faf5f5"></path><path d="M807.5 135L900 0L784.5 0Z" fill="#ffffff" stroke="#ffffff"></path><path d="M900 278L900 198L793.5 205Z" fill="#f5ecec" stroke="#f5ecec"></path><path d="M143.5 600L240 600L217 488Z" fill="#f2e7e7" stroke="#f2e7e7"></path><path d="M231 0L107.5 71L219 96Z" fill="#faf5f5" stroke="#faf5f5"></path><path d="M900 527L900 383L774.5 405Z" fill="#f7f1f1" stroke="#f7f1f1"></path><path d="M900 527L774.5 405L757.5 501Z" fill="#eddddd" stroke="#eddddd"></path><path d="M900 198L900 126L807.5 135Z" fill="#e5cfcf" stroke="#e5cfcf"></path><path d="M657 600L805.5 600L687 522Z" fill="#eddddd" stroke="#eddddd"></path><path d="M85.5 316L76.5 469L142.5 436Z" fill="#e8d4d4" stroke="#e8d4d4"></path><path d="M142.5 436L76.5 469L217 488Z" fill="#f5ecec" stroke="#f5ecec"></path><path d="M231 0L102.5 0L107.5 71Z" fill="#f2e7e7" stroke="#f2e7e7"></path><path d="M0 205L85.5 316L140.5 224Z" fill="#fcfafa" stroke="#fcfafa"></path><path d="M85.5 316L0 377L76.5 469Z" fill="#e5cfcf" stroke="#e5cfcf"></path><path d="M900 126L900 0L807.5 135Z" fill="#f7f1f1" stroke="#f7f1f1"></path><path d="M76.5 469L143.5 600L217 488Z" fill="#ffffff" stroke="#ffffff"></path><path d="M805.5 600L900 527L757.5 501Z" fill="#f7f1f1" stroke="#f7f1f1"></path><path d="M0 205L140.5 224L0 135Z" fill="#ffffff" stroke="#ffffff"></path><path d="M0 135L140.5 224L107.5 71Z" fill="#f5ecec" stroke="#f5ecec"></path><path d="M0 296L0 377L85.5 316Z" fill="#f7f1f1" stroke="#f7f1f1"></path><path d="M76.5 469L0 600L143.5 600Z" fill="#eddddd" stroke="#eddddd"></path><path d="M0 0L0 135L107.5 71Z" fill="#e8d4d4" stroke="#e8d4d4"></path><path d="M805.5 600L900 600L900 527Z" fill="#efe2e2" stroke="#efe2e2"></path><path d="M0 377L0 482L76.5 469Z" fill="#ffffff" stroke="#ffffff"></path><path d="M102.5 0L0 0L107.5 71Z" fill="#efe2e2" stroke="#efe2e2"></path><path d="M0 482L0 600L76.5 469Z" fill="#efe2e2" stroke="#efe2e2"></path></g></svg>