<svg id="visual" viewBox="0 0 900 600" width="900" height="600" xmlns="http://www.w3.org/2000/svg" xmlns:xlink="http://www.w3.org/1999/xlink" version="1.1"><path d="M0 79L13.7 76C27.3 73 54.7 67 82 66C109.3 65 136.7 69 163.8 69C191 69 218 65 245.2 62C272.3 59 299.7 57 327 58C354.3 59 381.7 63 409 67C436.3 71 463.7 75 491 71C518.3 67 545.7 55 573 54C600.3 53 627.7 63 654.8 73C682 83 709 93 736.2 87C763.3 81 790.7 59 818 52C845.3 45 872.7 53 886.3 57L900 61L900 0L886.3 0C872.7 0 845.3 0 818 0C790.7 0 763.3 0 736.2 0C709 0 682 0 654.8 0C627.7 0 600.3 0 573 0C545.7 0 518.3 0 491 0C463.7 0 436.3 0 409 0C381.7 0 354.3 0 327 0C299.7 0 272.3 0 245.2 0C218 0 191 0 163.8 0C136.7 0 109.3 0 82 0C54.7 0 27.3 0 13.7 0L0 0Z" fill="#142133"></path><path d="M0 157L13.7 165C27.3 173 54.7 189 82 197C109.3 205 136.7 205 163.8 196C191 187 218 169 245.2 153C272.3 137 299.7 123 327 135C354.3 147 381.7 185 409 195C436.3 205 463.7 187 491 178C518.3 169 545.7 169 573 165C600.3 161 627.7 153 654.8 161C682 169 709 193 736.2 185C763.3 177 790.7 137 818 140C845.3 143 872.7 189 886.3 212L900 235L900 59L886.3 55C872.7 51 845.3 43 818 50C790.7 57 763.3 79 736.2 85C709 91 682 81 654.8 71C627.7 61 600.3 51 573 52C545.7 53 518.3 65 491 69C463.7 73 436.3 69 409 65C381.7 61 354.3 57 327 56C299.7 55 272.3 57 245.2 60C218 63 191 67 163.8 67C136.7 67 109.3 63 82 64C54.7 65 27.3 71 13.7 74L0 77Z" fill="#524e5f"></path><path d="M0 307L13.7 309C27.3 311 54.7 315 82 337C109.3 359 136.7 399 163.8 405C191 411 218 383 245.2 379C272.3 375 299.7 395 327 414C354.3 433 381.7 451 409 448C436.3 445 463.7 421 491 408C518.3 395 545.7 393 573 387C600.3 381 627.7 371 654.8 372C682 373 709 385 736.2 384C763.3 383 790.7 369 818 356C845.3 343 872.7 331 886.3 325L900 319L900 233L886.3 210C872.7 187 845.3 141 818 138C790.7 135 763.3 175 736.2 183C709 191 682 167 654.8 159C627.7 151 600.3 159 573 163C545.7 167 518.3 167 491 176C463.7 185 436.3 203 409 193C381.7 183 354.3 145 327 133C299.7 121 272.3 135 245.2 151C218 167 191 185 163.8 194C136.7 203 109.3 203 82 195C54.7 187 27.3 171 13.7 163L0 155Z" fill="#8e838d"></path><path d="M0 409L13.7 412C27.3 415 54.7 421 82 438C109.3 455 136.7 483 163.8 487C191 491 218 471 245.2 468C272.3 465 299.7 479 327 491C354.3 503 381.7 513 409 515C436.3 517 463.7 511 491 506C518.3 501 545.7 497 573 488C600.3 479 627.7 465 654.8 466C682 467 709 483 736.2 486C763.3 489 790.7 479 818 459C845.3 439 872.7 409 886.3 394L900 379L900 317L886.3 323C872.7 329 845.3 341 818 354C790.7 367 763.3 381 736.2 382C709 383 682 371 654.8 370C627.7 369 600.3 379 573 385C545.7 391 518.3 393 491 406C463.7 419 436.3 443 409 446C381.7 449 354.3 431 327 412C299.7 393 272.3 373 245.2 377C218 381 191 409 163.8 403C136.7 397 109.3 357 82 335C54.7 313 27.3 309 13.7 307L0 305Z" fill="#c7bec1"></path><path d="M0 601L13.7 601C27.3 601 54.7 601 82 601C109.3 601 136.7 601 163.8 601C191 601 218 601 245.2 601C272.3 601 299.7 601 327 601C354.3 601 381.7 601 409 601C436.3 601 463.7 601 491 601C518.3 601 545.7 601 573 601C600.3 601 627.7 601 654.8 601C682 601 709 601 736.2 601C763.3 601 790.7 601 818 601C845.3 601 872.7 601 886.3 601L900 601L900 377L886.3 392C872.7 407 845.3 437 818 457C790.7 477 763.3 487 736.2 484C709 481 682 465 654.8 464C627.7 463 600.3 477 573 486C545.7 495 518.3 499 491 504C463.7 509 436.3 515 409 513C381.7 511 354.3 501 327 489C299.7 477 272.3 463 245.2 466C218 469 191 489 163.8 485C136.7 481 109.3 453 82 436C54.7 419 27.3 413 13.7 410L0 407Z" fill="#fffefe"></path></svg>